<svg xmlns="http://www.w3.org/2000/svg" width="36" height="36" viewBox="0 0 36 36" fill="none">
  <g clip-path="url(#clip0_1_76)">
    <path d="M13.05 23.85L7.2 18L13.05 12.15C13.635 11.565 13.635 10.635 13.05 10.05C12.465 9.46496 11.535 9.46496 10.95 10.05L4.065 16.935C3.48 17.52 3.48 18.465 4.065 19.05L10.95 25.95C11.535 26.535 12.465 26.535 13.05 25.95C13.635 25.365 13.635 24.435 13.05 23.85ZM22.95 23.85L28.8 18L22.95 12.15C22.365 11.565 22.365 10.635 22.95 10.05C23.535 9.46496 24.465 9.46496 25.05 10.05L31.935 16.935C32.52 17.52 32.52 18.465 31.935 19.05L25.05 25.95C24.465 26.535 23.535 26.535 22.95 25.95C22.365 25.365 22.365 24.435 22.95 23.85Z" fill="white"/>
  </g>
  <defs>
    <clipPath id="clip0_1_76">
      <rect width="36" height="36" fill="white"/>
    </clipPath>
  </defs>
</svg>