<svg xmlns="http://www.w3.org/2000/svg" width="37" height="54" viewBox="0 0 37 54" fill="none">
  <path d="M30.673 14.3148C29.0974 14.3148 27.6597 14.9162 26.5772 15.901C25.4947 14.9162 24.0569 14.3148 22.4816 14.3148C20.9047 14.3148 19.4657 14.9164 18.3824 15.9015C17.2999 14.9164 15.8622 14.3148 14.2866 14.3148C13.549 14.3148 12.8417 14.4465 12.1868 14.6876V6.0942C12.1871 2.7339 9.45423 0 6.09526 0C2.73443 0 0 2.7339 0 6.0942V35.6197C0 45.7547 8.24588 53.9997 18.3816 53.9997C28.5181 53.9997 36.7648 45.7547 36.7648 35.6197V20.4066C36.7648 17.0474 34.0319 14.3148 30.673 14.3148ZM32.7733 35.6197C32.7733 43.5535 26.3172 50.0082 18.3816 50.0082C10.4468 50.0082 3.99149 43.5535 3.99149 35.6197V6.0942C3.99149 4.93481 4.93534 3.99148 6.09526 3.99148C7.25333 3.99148 8.19558 4.93481 8.19558 6.0942V20.4063V24.7839C8.19558 25.8861 9.08914 26.7797 10.1913 26.7797C11.2935 26.7797 12.1871 25.8861 12.1871 24.7839V20.4066C12.1871 19.2485 13.1288 18.3063 14.2869 18.3063C15.4444 18.3063 16.3861 19.2485 16.3861 20.4066V24.7842C16.3861 25.8864 17.2797 26.7799 18.3819 26.7799C19.484 26.7799 20.3776 25.8864 20.3776 24.7842V20.4066C20.3776 19.2485 21.3217 18.3063 22.4819 18.3063C23.6397 18.3063 24.5817 19.2485 24.5817 20.4066V24.7842C24.5817 25.8864 25.4753 26.7799 26.5774 26.7799C27.6796 26.7799 28.5732 25.8864 28.5732 24.7842V20.4066C28.5732 19.2485 29.5152 18.3063 30.6735 18.3063C31.8316 18.3063 32.7738 19.2485 32.7738 20.4066V35.6197H32.7733Z" fill="#464646" fill-opacity="0.21"/>
</svg>